# xmcd
#
# Track frame offsets: 
#        150
#        22875
#        37970
#        51325
#        79377
#        100332
#        117562
#        130192
#        153932
#        176512
#        190155
#        212675
#
# Disc length: 3111 seconds
#
# Revision: 5
# Processed by: cddbd v1.5.2PL0 Copyright (c) Steve Scherf et al.
# Submitted via: ExactAudioCopyFreeDBPlugin 1.0
#
DISCID=9d0c250c
DTITLE=Robert Lucas - Completely Blue
DYEAR=1997
DGENRE=Blues
TTITLE0=I Miss Being High
TTITLE1=50 Pounds Of Bone
TTITLE2=Dollars and Sense
TTITLE3=Completely Blue
TTITLE4=Party Girl
TTITLE5=I Don't Know Why
TTITLE6=I'm Gonna Whisper
TTITLE7=Pain In Our Cities
TTITLE8=Two For Nothing
TTITLE9=Listen To Me Baby
TTITLE10=I Don't Want You to Go
TTITLE11=Voodoo Child
EXTD=
EXTT0=
EXTT1=
EXTT2=
EXTT3=
EXTT4=
EXTT5=
EXTT6=
EXTT7=
EXTT8=
EXTT9=
EXTT10=
EXTT11=
PLAYORDER=
